<?xml version="1.0" standalone="no"?>
<!DOCTYPE svg PUBLIC "-//W3C//DTD SVG 20010904//EN"
 "http://www.w3.org/TR/2001/REC-SVG-20010904/DTD/svg10.dtd">
<svg version="1.0" xmlns="http://www.w3.org/2000/svg"
 width="712.000000pt" height="712.000000pt" viewBox="0 0 712.000000 712.000000"
 preserveAspectRatio="xMidYMid meet">
<metadata>
Created by potrace 1.11, written by Peter Selinger 2001-2013
</metadata>
<g transform="translate(0.000000,712.000000) scale(0.100000,-0.100000)"
fill="#000000" stroke="none">
<path d="M3485 5985 c-77 -18 -139 -49 -189 -95 -50 -46 -106 -135 -106 -169
0 -27 36 -36 97 -23 27 6 64 13 83 16 19 4 44 8 55 10 11 2 43 7 70 10 28 4
61 9 75 11 14 2 45 6 70 10 96 14 150 34 160 61 16 40 12 51 -25 93 -63 69
-185 101 -290 76z"/>
<path d="M3878 5923 c-19 -5 -21 -10 -18 -61 1 -27 -6 -40 -40 -71 -47 -43
-50 -71 -9 -82 15 -3 77 -32 138 -63 129 -64 171 -71 197 -31 15 22 15 32 5
68 -29 98 -103 184 -190 223 -29 13 -56 23 -60 23 -3 -1 -14 -3 -23 -6z"/>
<path d="M2989 5806 c-2 -2 -49 -6 -105 -10 -55 -4 -109 -8 -120 -10 -10 -2
-40 -6 -65 -10 -70 -10 -96 -15 -183 -37 -45 -11 -90 -21 -100 -24 -95 -22
-313 -109 -436 -173 -610 -316 -1049 -888 -1204 -1571 l-15 -64 81 -84 c45
-46 84 -83 87 -83 11 0 40 79 57 152 93 421 284 774 577 1069 259 260 588 451
939 544 121 32 230 53 316 61 37 4 70 9 73 13 20 20 118 220 111 225 -5 3 -11
4 -13 2z"/>
<path d="M3590 5707 c-47 -24 -48 -44 -5 -85 56 -53 71 -76 113 -164 20 -43
43 -80 51 -83 22 -9 283 -7 292 2 16 16 16 58 1 88 -40 79 -193 208 -283 238
-54 18 -137 20 -169 4z"/>
<path d="M3235 5677 c-27 -4 -53 -14 -57 -20 -25 -39 8 -158 62 -223 71 -86
159 -124 286 -124 65 0 87 4 105 18 21 18 22 21 9 68 -17 64 -64 153 -106 202
-60 70 -173 100 -299 79z"/>
<path d="M3069 5639 c-48 -24 -76 -59 -124 -152 -29 -59 -40 -92 -42 -135 -5
-101 47 -247 85 -240 9 2 23 24 32 49 27 73 134 219 161 219 17 0 9 32 -20 84
-19 35 -31 75 -35 119 -4 37 -11 69 -14 71 -4 2 -23 -4 -43 -15z"/>
<path d="M4228 5598 c-21 -11 -57 -22 -80 -25 -24 -3 -50 -12 -59 -20 -15 -13
-13 -20 22 -89 25 -48 39 -89 39 -113 0 -25 14 -64 43 -117 38 -71 46 -80 79
-88 51 -13 83 6 119 68 69 121 36 330 -60 384 -47 26 -55 26 -103 0z"/>
<path d="M3164 5317 c-42 -36 -93 -127 -108 -191 -34 -145 24 -305 123 -334
56 -17 129 -13 178 10 34 16 44 26 49 53 9 47 -1 69 -44 98 -26 17 -48 45 -69
88 -51 105 -53 111 -61 214 -8 91 -20 102 -68 62z"/>
<path d="M3774 5296 c-35 -26 13 -119 89 -173 47 -35 223 -93 277 -93 63 0 81
29 54 82 -8 15 -12 28 -10 28 7 0 -34 144 -44 154 -14 15 -346 16 -366 2z"/>
<path d="M3290 5280 c-27 -50 10 -186 68 -248 58 -64 291 -166 337 -148 49 19
4 284 -57 333 -7 6 -35 13 -63 17 -27 3 -61 8 -75 11 -14 3 -41 8 -60 11 -19
4 -59 15 -87 25 -51 17 -53 17 -63 -1z"/>
<path d="M4616 5163 c-3 -16 -8 -50 -12 -78 -3 -27 -8 -53 -10 -56 -2 -4 -6
-27 -9 -53 -6 -46 -4 -48 53 -114 127 -145 215 -277 304 -454 32 -65 58 -122
58 -127 0 -22 19 -19 57 9 22 16 65 39 96 51 65 25 67 13 -17 180 -70 139
-139 248 -232 369 -74 97 -260 300 -275 300 -4 0 -10 -12 -13 -27z"/>
<path d="M3730 5138 c0 -6 12 -46 26 -87 24 -70 31 -125 20 -177 -7 -34 7 -46
84 -65 76 -20 120 -22 145 -5 l24 16 -42 91 c-43 96 -89 151 -174 210 -43 30
-83 38 -83 17z"/>
<path d="M4375 5121 c-6 -5 -32 -16 -60 -24 -49 -14 -50 -14 -68 -77 l-19 -63
40 -38 c21 -21 50 -54 63 -74 37 -55 65 -46 106 35 46 93 46 158 1 223 -19 27
-46 35 -63 18z"/>
<path d="M4056 4971 c-5 -8 -4 -18 11 -81 3 -14 6 -56 7 -94 l1 -69 45 -18
c143 -54 223 -62 228 -21 6 41 -52 151 -115 220 -46 51 -160 91 -177 63z"/>
<path d="M3422 4800 c5 -87 23 -113 108 -158 58 -31 69 -33 124 -27 34 3 69 6
78 6 27 0 111 61 125 91 16 31 11 47 -24 72 -26 19 -52 22 -112 11 -48 -8
-137 11 -202 46 -31 16 -67 29 -79 29 -21 0 -22 -3 -18 -70z"/>
<path d="M3909 4709 c-18 -23 -48 -48 -66 -56 -49 -20 -53 -41 -14 -74 64 -53
216 -74 283 -38 57 30 88 62 88 89 0 25 -4 29 -41 35 -54 9 -106 31 -146 61
-45 34 -66 30 -104 -17z"/>
<path d="M4729 4525 c-3 -2 -20 -7 -39 -10 -19 -3 -73 -13 -120 -21 -47 -9
-96 -18 -110 -20 -62 -10 -68 -14 -74 -46 -3 -18 -8 -42 -10 -53 -3 -11 -12
-59 -22 -107 l-17 -87 -94 -17 c-52 -9 -93 -21 -93 -28 0 -6 -9 -49 -19 -95
l-19 -83 41 6 c42 6 66 10 121 22 16 3 26 2 23 -2 -4 -8 -52 -229 -63 -294 -3
-14 -7 -33 -10 -42 -3 -10 -7 -29 -10 -42 -37 -205 -88 -348 -177 -498 -95
-159 -189 -227 -217 -157 -19 46 -2 198 47 404 2 11 6 34 9 50 3 17 9 46 14
65 5 19 12 50 15 68 3 18 12 65 21 105 8 39 17 79 19 88 2 9 6 32 9 50 3 19
12 61 19 95 12 54 11 61 -2 58 -15 -4 -287 -53 -321 -58 -13 -3 -39 -83 -54
-166 -29 -176 -94 -446 -121 -509 -106 -249 -207 -383 -298 -398 -82 -13 -86
80 -17 407 23 107 44 206 46 220 4 22 24 119 30 145 1 6 5 23 8 39 3 16 10 52
16 80 6 28 12 62 15 75 7 36 12 39 95 52 41 6 78 15 82 18 6 5 16 44 43 174 2
9 3 17 2 17 -1 0 -40 -7 -87 -15 -47 -8 -86 -15 -86 -15 -1 0 11 61 27 136 16
75 28 138 27 139 -3 2 -177 -28 -233 -39 -11 -3 -42 -8 -68 -12 -27 -4 -50
-12 -52 -18 -2 -6 -15 -70 -31 -143 l-27 -131 -81 -12 c-45 -7 -86 -17 -92
-22 -7 -5 -15 -25 -18 -46 -4 -20 -12 -58 -18 -84 -7 -26 -9 -50 -7 -53 3 -2
42 2 88 11 46 9 84 14 86 12 2 -3 -4 -35 -29 -153 -3 -11 -10 -45 -15 -75 -69
-352 -87 -411 -179 -590 -77 -149 -157 -240 -212 -240 -25 0 -31 5 -39 38 -15
54 -6 120 49 392 28 135 52 254 54 265 2 11 12 56 21 100 17 80 20 95 31 150
3 17 8 38 10 47 4 13 0 16 -14 13 -11 -2 -37 -6 -58 -9 -22 -3 -50 -8 -64 -11
-54 -11 -77 -15 -140 -26 -36 -5 -68 -13 -72 -17 -3 -4 -18 -63 -32 -132 -14
-69 -45 -219 -70 -335 -55 -263 -57 -273 -61 -371 -6 -178 41 -286 145 -333
145 -66 340 20 483 212 l50 68 23 -46 c44 -92 124 -136 236 -130 147 7 295
101 409 260 l32 44 22 -47 c58 -122 177 -163 328 -113 106 36 203 117 289 243
l28 40 18 -43 c24 -55 88 -114 139 -128 174 -49 386 62 529 276 71 107 134
240 196 413 88 247 134 317 221 336 27 6 134 5 162 0 11 -3 35 -5 54 -5 23 -1
32 -5 28 -14 -3 -8 -127 -172 -276 -366 -150 -193 -274 -357 -277 -364 -4 -11
23 -40 113 -120 l22 -20 38 37 c21 21 52 45 68 54 39 22 140 20 225 -3 186
-50 363 -7 493 119 95 93 165 213 258 444 l37 93 -21 21 c-25 24 -78 48 -105
48 -13 0 -27 -21 -50 -79 -37 -88 -99 -190 -140 -227 -73 -68 -151 -78 -297
-40 -50 12 -98 22 -108 20 -9 -1 -17 -1 -17 1 0 2 119 159 265 350 146 190
265 349 265 353 0 7 -52 59 -111 110 l-26 23 -48 -21 c-83 -36 -134 -42 -340
-44 -194 -2 -202 -3 -259 -29 -119 -55 -168 -136 -261 -437 -117 -378 -247
-619 -365 -678 -74 -36 -104 -8 -102 98 0 55 37 249 126 667 9 40 18 87 21
105 3 18 8 47 12 63 4 17 7 33 7 37 2 15 19 22 98 37 l82 17 18 79 c27 122 31
115 -63 98 -44 -9 -82 -14 -84 -11 -2 2 9 63 25 136 24 113 26 155 9 137z"/>
<path d="M3809 4396 c-84 -29 -124 -80 -136 -174 -4 -33 1 -54 21 -95 33 -66
86 -105 156 -113 98 -11 198 65 216 165 8 43 -9 112 -37 150 -45 61 -147 92
-220 67z"/>
<path d="M1665 4238 c-166 -21 -326 -126 -428 -281 -105 -158 -196 -413 -272
-761 l-17 -78 -41 6 c-97 16 -189 82 -235 170 -23 44 -27 63 -27 141 0 100 15
141 75 204 l32 33 -103 104 c-57 57 -108 104 -113 104 -15 0 -84 -80 -121
-140 -63 -104 -81 -178 -79 -330 1 -86 6 -119 28 -180 72 -205 240 -346 463
-390 l61 -12 -13 -47 c-8 -25 -19 -65 -25 -89 -11 -42 -11 -42 -38 -28 -78 40
-216 60 -314 45 -74 -12 -169 -60 -219 -111 -23 -24 -56 -72 -73 -108 -28 -59
-31 -74 -31 -165 0 -90 3 -105 28 -153 44 -84 114 -145 195 -171 188 -61 398
-7 544 139 l71 71 66 -41 c36 -23 140 -88 231 -146 365 -231 532 -281 727
-219 100 32 189 89 284 185 117 117 119 102 -22 214 l-121 95 -38 -48 c-80
-102 -179 -164 -260 -164 -68 0 -132 25 -267 102 -146 84 -460 279 -467 290
-3 4 3 34 13 67 10 32 28 111 41 174 13 63 24 116 25 117 1 1 19 5 40 9 74 11
210 55 293 94 270 127 476 360 547 617 63 232 24 444 -104 571 -87 86 -209
126 -336 110z m70 -388 c45 -42 51 -147 15 -261 -41 -134 -146 -269 -267 -347
-63 -40 -179 -89 -189 -79 -7 7 36 175 78 307 40 127 109 267 161 326 69 79
152 101 202 54z m-1062 -1435 c65 -30 65 -35 2 -100 -72 -73 -157 -85 -212
-29 -35 34 -12 123 37 149 36 19 108 11 173 -20z"/>
<path d="M2425 4142 c-56 -27 -82 -52 -103 -103 -59 -138 56 -289 207 -273 69
8 144 72 162 138 34 127 -43 241 -173 252 -39 4 -64 0 -93 -14z"/>
<path d="M5239 2864 c-14 -14 -61 -36 -108 -52 l-83 -27 -33 -85 c-18 -47 -53
-127 -79 -178 -25 -50 -47 -95 -49 -99 -1 -5 54 -8 122 -8 l124 -1 44 93 c47
102 137 362 128 371 -15 15 -43 9 -66 -14z"/>
<path d="M2917 2254 c-15 -8 -32 -26 -37 -40 -6 -14 -10 -94 -10 -177 0 -134
2 -156 20 -184 11 -18 25 -33 32 -34 7 0 22 -2 33 -4 39 -8 86 7 103 33 20 31
27 133 9 144 -7 4 -26 8 -44 8 -31 0 -32 -1 -35 -50 -2 -28 -7 -50 -13 -50 -6
0 -10 53 -10 140 0 88 4 139 10 138 6 -2 11 -16 12 -33 1 -16 2 -38 2 -47 1
-14 10 -18 45 -18 l43 0 1 48 c0 26 -4 62 -10 80 -17 56 -91 78 -151 46z"/>
<path d="M3203 2262 l-23 -3 0 -220 0 -219 45 0 45 0 0 86 c0 64 3 85 13 81
11 -3 13 -21 16 -139 1 -26 4 -28 47 -28 l45 0 -1 83 c-2 51 -8 91 -17 105
-12 20 -12 25 2 44 31 46 14 164 -29 191 -22 15 -101 25 -143 19z m94 -135 c1
-44 -1 -57 -13 -57 -11 0 -14 14 -14 61 0 44 3 60 13 57 7 -3 13 -26 14 -61z"/>
<path d="M3567 2256 c-11 -9 -33 -113 -42 -196 -1 -8 -4 -28 -8 -45 -3 -16 -9
-46 -11 -65 -3 -19 -9 -56 -14 -82 l-9 -48 48 0 c42 0 49 3 50 20 3 41 4 45
19 45 19 1 30 -14 30 -42 0 -21 5 -23 46 -23 l46 0 -7 53 c-4 28 -9 61 -11 72
-3 11 -7 36 -10 55 -3 19 -7 42 -9 50 -2 8 -7 35 -10 60 -11 80 -23 141 -28
146 -10 10 -68 10 -80 0z m45 -233 c2 -39 -1 -62 -7 -60 -9 2 -10 19 -6 111 2
40 9 9 13 -51z"/>
<path d="M3837 2260 c-9 -4 -12 -59 -12 -220 l0 -215 47 -3 47 -3 -1 86 c0 47
3 89 7 93 4 4 16 7 28 7 17 0 23 7 25 33 3 30 1 32 -27 32 -33 0 -39 15 -33
82 4 35 5 36 40 35 34 -2 37 0 39 30 2 18 -3 35 -9 40 -14 8 -132 11 -151 3z"/>
<path d="M4080 2262 c-5 -2 -10 -19 -10 -38 0 -33 12 -41 52 -35 4 0 7 -66 6
-147 0 -81 1 -164 1 -184 l1 -38 44 0 44 0 0 158 c0 232 -3 212 32 212 27 0
29 3 28 35 -1 32 -4 35 -32 36 -104 3 -157 4 -166 1z"/>
<path d="M4577 2262 c-16 -3 -17 -22 -17 -223 l0 -219 65 0 c76 0 106 12 128
50 21 35 23 129 3 155 -11 15 -11 25 -4 39 32 60 15 152 -34 181 -28 16 -100
25 -141 17z m97 -94 c8 -37 2 -81 -11 -86 -10 -3 -13 12 -13 52 0 56 15 77 24
34z m6 -212 c0 -39 -4 -55 -15 -60 -12 -4 -15 5 -15 54 0 47 3 60 15 60 11 0
15 -13 15 -54z"/>
<path d="M4887 2260 c-9 -4 -12 -60 -12 -220 l0 -215 87 -3 87 -3 -1 41 c0 40
0 40 -40 40 l-39 0 3 53 c3 48 5 52 28 52 21 0 26 5 28 32 3 29 1 32 -30 35
-18 2 -32 6 -30 11 1 4 2 30 2 57 l0 50 38 0 c36 0 38 2 40 35 2 23 -2 35 -10
36 -92 3 -141 3 -151 -1z"/>
<path d="M5160 2262 c-6 -2 -10 -85 -10 -223 l0 -220 88 3 87 3 1 38 1 37 -42
0 -42 0 0 54 c0 51 1 54 23 50 25 -5 37 8 39 43 0 19 -4 23 -31 23 l-31 0 -1
59 -1 59 42 -1 c41 -1 42 0 43 36 1 31 -2 37 -20 38 -79 3 -137 4 -146 1z"/>
<path d="M5453 2262 c-13 -2 -23 -8 -24 -13 0 -5 0 -92 0 -194 0 -102 0 -196
0 -210 1 -23 5 -25 44 -25 l43 0 -1 85 c-1 64 2 85 12 85 15 0 15 -1 17 -95
l1 -70 44 0 44 0 0 81 c-1 45 -6 91 -12 103 -9 15 -9 26 -1 42 17 31 14 137
-4 165 -27 41 -85 57 -163 46z m92 -132 c-3 -57 -4 -60 -18 -60 -16 0 -18 101
-2 112 14 10 22 -11 20 -52z"/>
<path d="M5949 2262 l-27 -3 0 -220 0 -219 47 0 46 0 0 93 0 92 28 -2 c15 -1
28 2 28 7 7 48 4 55 -26 60 -29 5 -30 7 -30 60 0 37 4 55 13 56 6 1 25 2 42 3
27 1 29 4 28 36 -1 24 -6 35 -17 36 -64 3 -110 4 -132 1z"/>
<path d="M6202 2251 c-4 -11 -6 -321 -3 -408 1 -22 5 -23 86 -23 l85 0 0 40 0
40 -41 0 -40 0 3 53 c3 50 4 52 31 51 24 -1 27 2 27 32 0 31 -3 34 -30 34
l-30 0 0 61 0 61 38 -4 c36 -3 37 -2 40 35 2 20 0 37 -5 38 -77 7 -156 2 -161
-10z"/>
<path d="M6509 2255 c-34 -18 -49 -57 -48 -120 1 -47 5 -54 57 -105 43 -43 56
-63 59 -92 3 -29 0 -38 -11 -38 -12 0 -16 11 -16 40 l0 40 -45 0 -46 0 2 -37
c4 -109 57 -153 146 -123 44 16 62 54 60 129 l-2 63 -58 52 c-52 46 -58 55
-55 84 5 39 22 42 25 5 3 -45 9 -49 52 -45 l40 4 -4 51 c-3 43 -9 57 -34 79
-35 31 -80 36 -122 13z"/>
<path d="M6765 2260 c-26 -4 -30 -9 -30 -37 0 -30 3 -33 30 -33 l30 0 0 -185
0 -186 45 3 45 3 1 175 c1 96 2 178 3 183 0 4 14 7 30 7 26 0 28 3 27 36 l-2
36 -75 2 c-41 0 -87 -1 -104 -4z"/>
<path d="M4153 1672 c-41 -30 -187 -105 -288 -147 -165 -69 -358 -121 -565
-150 -88 -13 -395 -12 -500 1 -243 31 -477 102 -693 211 -65 32 -71 33 -131
25 -122 -16 -236 2 -401 64 -42 16 187 -153 285 -210 225 -131 507 -240 720
-279 14 -3 36 -8 50 -11 29 -6 81 -14 147 -21 27 -3 68 -7 93 -10 61 -7 312
-7 380 0 452 46 848 196 1193 453 55 40 96 76 93 79 -4 4 -87 7 -186 7 -134 1
-184 -2 -197 -12z"/>
</g>
</svg>
