<?xml version="1.0" standalone="no"?>
<!DOCTYPE svg PUBLIC "-//W3C//DTD SVG 20010904//EN"
 "http://www.w3.org/TR/2001/REC-SVG-20010904/DTD/svg10.dtd">
<svg version="1.0" xmlns="http://www.w3.org/2000/svg"
 width="500.000000pt" height="500.000000pt" viewBox="0 0 500.000000 500.000000"
 preserveAspectRatio="xMidYMid meet">
<metadata>
Created by potrace 1.11, written by Peter Selinger 2001-2013
</metadata>
<g transform="translate(0.000000,500.000000) scale(0.100000,-0.100000)"
fill="#000000" stroke="none">
<path d="M2278 4533 l-48 -4 0 -44 c0 -42 1 -44 33 -47 l32 -3 15 -185 15
-185 44 -3 c24 -2 47 0 52 5 4 4 1 80 -6 168 -20 226 -21 214 16 222 28 5 30
9 25 36 -3 16 -6 33 -6 38 0 9 -75 9 -172 2z"/>
<path d="M1878 4442 c-42 -15 -79 -30 -83 -33 -5 -6 137 -434 147 -445 5 -4
98 25 98 31 0 2 -14 43 -31 91 -31 89 -30 103 10 104 10 0 12 8 7 32 -9 43
-18 51 -49 39 -24 -9 -26 -8 -41 36 -21 61 -21 61 19 77 19 8 35 19 35 24 0
17 -22 72 -28 71 -4 0 -42 -13 -84 -27z"/>
<path d="M2986 4247 c-43 -116 -81 -217 -83 -223 -5 -14 104 -54 150 -54 23 0
46 9 65 25 37 31 66 106 59 150 -4 24 -1 35 9 39 22 8 54 85 54 131 0 54 -22
83 -84 110 -98 43 -82 60 -170 -178z m161 81 c-2 -7 -10 -30 -18 -50 -7 -21
-19 -38 -25 -38 -10 0 -10 7 0 33 7 17 16 40 19 50 4 9 11 17 18 17 6 0 9 -6
6 -12z m-63 -166 c7 -12 -29 -105 -43 -110 -15 -5 -14 12 6 69 17 48 26 58 37
41z"/>
<path d="M1423 4217 c-18 -12 -33 -26 -33 -32 0 -5 43 -105 96 -222 l97 -212
26 15 c62 37 64 39 47 72 -11 22 -12 32 -4 40 9 9 19 6 39 -14 l27 -26 41 28
41 27 -42 46 c-133 146 -284 301 -293 300 -5 0 -25 -10 -42 -22z m189 -271
c-6 -10 -26 15 -48 59 -14 27 -11 25 19 -10 19 -22 33 -44 29 -49z"/>
<path d="M3396 4059 c-70 -99 -129 -186 -132 -194 -5 -11 103 -97 138 -110 7
-3 23 10 35 30 l22 34 -31 25 c-34 26 -33 35 8 91 14 18 16 18 43 2 28 -16 29
-16 45 8 21 32 20 41 -6 59 l-21 15 28 41 c37 54 40 55 76 29 l31 -22 24 29
c13 16 23 32 24 36 0 8 -139 108 -150 108 -4 0 -64 -81 -134 -181z"/>
<path d="M3708 3798 c-97 -84 -176 -156 -175 -160 3 -11 111 -137 119 -137 3
-1 20 11 37 25 l31 26 -27 35 -27 35 40 33 39 33 20 -23 20 -24 30 24 c28 23
29 24 11 44 -23 25 -17 42 29 77 l37 28 24 -27 c28 -33 31 -33 68 -2 l29 23
-62 71 c-35 39 -64 71 -65 71 -1 0 -81 -69 -178 -152z"/>
<path d="M1070 3895 c-23 -12 -100 -97 -100 -109 0 -6 326 -287 347 -300 11
-6 72 48 73 65 0 3 -29 29 -65 59 -36 30 -65 57 -65 62 0 19 25 5 78 -42 31
-27 61 -50 68 -50 13 0 65 56 63 68 -1 16 -131 113 -158 118 -17 4 -31 13 -31
20 0 19 -68 92 -101 110 -35 18 -76 17 -109 -1z m89 -113 c25 -21 40 -41 35
-44 -11 -7 -94 58 -94 73 0 16 14 9 59 -29z"/>
<path d="M2868 3803 c-53 -32 -92 -77 -85 -97 3 -8 -1 -17 -9 -20 -9 -4 -14
-21 -14 -52 0 -98 80 -175 183 -178 l52 -1 -1 50 c-2 90 -64 171 -135 177 -13
1 41 5 120 8 120 4 146 8 154 22 14 22 -7 62 -48 91 -22 16 -48 23 -100 25
-62 3 -75 0 -117 -25z"/>
<path d="M2365 3794 c-153 -17 -334 -68 -460 -131 -270 -135 -501 -376 -615
-643 l-28 -65 36 -50 c19 -27 39 -54 43 -58 3 -5 36 52 72 126 77 156 153 263
264 368 99 95 177 148 307 210 170 81 410 130 561 114 l61 -7 47 60 c45 57 46
60 24 66 -29 8 -261 15 -312 10z"/>
<path d="M3164 3731 c-4 -17 -16 -33 -30 -40 -30 -13 -31 -37 -3 -51 11 -7 44
-29 72 -51 63 -48 100 -50 105 -5 5 45 -26 113 -66 146 -47 39 -71 39 -78 1z"/>
<path d="M2681 3668 c-56 -38 -94 -100 -99 -160 -4 -59 10 -108 32 -108 8 0
17 9 21 19 3 11 30 42 60 69 l53 49 -6 73 c-4 40 -12 75 -18 77 -6 2 -25 -7
-43 -19z"/>
<path d="M2983 3659 c-8 -8 -5 -20 11 -44 13 -18 29 -55 36 -82 7 -26 17 -53
22 -60 11 -14 140 -38 162 -30 52 20 -52 184 -137 216 -37 14 -80 14 -94 0z"/>
<path d="M3948 3469 c-109 -54 -198 -103 -198 -109 0 -16 33 -80 42 -80 5 0
40 16 78 35 38 19 74 35 80 35 25 0 5 -18 -47 -44 -32 -15 -68 -34 -80 -42
l-23 -14 22 -45 c12 -25 25 -44 28 -43 104 53 153 83 166 103 12 19 25 25 51
25 46 0 131 47 149 82 8 15 14 39 14 53 0 33 -56 145 -73 144 -6 0 -101 -45
-209 -100z m192 -32 c0 -16 -96 -64 -107 -54 -8 9 -7 10 52 40 60 31 55 30 55
14z"/>
<path d="M3300 3541 c-49 -7 -51 -10 -33 -81 15 -59 9 -67 -45 -60 -26 4 -68
13 -94 20 -63 16 -82 9 -74 -30 3 -17 15 -43 27 -59 28 -38 127 -91 169 -91
l32 0 -5 73 c-5 69 -5 70 7 32 8 -24 23 -46 38 -54 23 -13 29 -13 50 1 83 54
80 250 -3 254 -13 1 -44 -1 -69 -5z"/>
<path d="M797 3499 c-9 -5 -26 -28 -38 -51 -25 -48 -20 -95 14 -125 34 -31
299 -153 333 -153 78 0 134 113 88 178 -14 20 -102 72 -122 72 -9 0 -42 -64
-42 -80 0 -6 20 -20 45 -32 40 -20 58 -38 38 -38 -18 0 -273 124 -273 133 0
11 19 6 71 -16 l36 -16 21 44 22 45 -50 25 c-51 26 -112 32 -143 14z"/>
<path d="M2691 3465 c-60 -69 -77 -151 -44 -219 9 -19 28 -40 42 -46 37 -15
97 -15 115 -1 13 11 14 8 9 -23 -5 -32 -1 -40 35 -76 39 -40 61 -47 132 -42
17 1 29 -5 35 -20 16 -35 60 -61 112 -65 87 -7 134 41 71 73 -18 9 -45 27 -60
41 l-26 25 -38 -26 c-21 -14 -43 -26 -49 -26 -5 0 1 7 13 16 26 18 26 52 2 65
-8 4 -41 13 -73 19 -32 6 -70 22 -86 36 -16 13 -36 24 -45 24 -9 0 -16 8 -16
19 0 10 -7 24 -14 31 -28 22 -49 108 -42 171 6 57 5 59 -18 59 -15 0 -36 -13
-55 -35z"/>
<path d="M2784 3445 c-3 -14 -3 -46 1 -71 8 -56 64 -116 144 -154 44 -20 54
-22 62 -10 12 20 12 146 -1 169 -5 10 -38 29 -72 41 -35 13 -72 29 -83 37 -29
19 -44 16 -51 -12z"/>
<path d="M3025 3255 l0 -94 47 -21 c54 -23 60 -24 75 -9 32 32 -68 219 -117
219 -3 0 -5 -43 -5 -95z"/>
<path d="M3491 3218 c-12 -34 -21 -67 -21 -74 0 -7 16 -39 35 -71 43 -73 98
-209 116 -286 12 -51 16 -57 34 -52 11 4 39 12 63 18 43 10 43 12 37 44 -12
64 -57 188 -101 276 -48 96 -119 207 -133 207 -5 0 -19 -28 -30 -62z"/>
<path d="M3337 3263 c-20 -3 -33 -14 -44 -38 -15 -32 -15 -35 14 -81 16 -26
34 -49 40 -51 7 -3 26 15 42 38 32 43 39 85 21 120 -11 19 -18 20 -73 12z"/>
<path d="M3178 3165 c-1 -30 -2 -63 -2 -72 -1 -21 86 -72 122 -73 18 0 22 5
22 30 0 67 -73 170 -121 170 -16 0 -19 -8 -21 -55z"/>
<path d="M1729 3050 c-98 -17 -199 -93 -276 -209 -36 -54 -118 -216 -143 -281
-7 -19 -16 -39 -20 -43 -11 -13 -63 17 -97 56 -56 64 -51 161 13 225 l33 33
-46 70 c-25 38 -50 69 -55 69 -24 0 -108 -95 -134 -153 -24 -52 -28 -75 -28
-143 0 -67 5 -90 27 -136 32 -65 110 -141 172 -169 25 -11 45 -22 45 -25 0 -5
-30 -66 -35 -72 -2 -2 -26 8 -54 23 -171 86 -351 -8 -351 -184 0 -131 99 -209
254 -199 72 5 157 38 185 72 12 14 27 3 126 -88 206 -190 280 -232 399 -224
69 4 165 45 225 96 39 33 39 33 -32 113 -35 40 -51 51 -60 44 -105 -79 -155
-92 -225 -56 -29 15 -312 254 -312 264 0 1 18 43 39 92 l39 90 78 8 c260 26
469 194 514 414 41 197 -92 344 -281 313z m56 -214 c14 -10 19 -25 19 -54 -3
-89 -89 -202 -189 -248 -56 -26 -125 -42 -125 -30 0 4 25 56 55 115 58 113
109 182 159 212 37 23 56 24 81 5z m-726 -687 l33 -20 -22 -24 c-42 -44 -115
-44 -126 0 -15 61 48 85 115 44z"/>
<path d="M2184 2921 c-60 -26 -85 -122 -44 -173 41 -53 125 -61 168 -15 49 52
48 119 -2 166 -26 25 -89 36 -122 22z"/>
<path d="M2953 2914 c-67 -33 -80 -125 -24 -178 75 -72 191 -20 191 86 0 40
-21 73 -60 93 -37 19 -67 19 -107 -1z"/>
<path d="M2514 2838 l-30 -73 -53 -3 c-52 -3 -52 -4 -72 -48 -10 -25 -19 -50
-19 -55 0 -5 22 -9 50 -9 l49 0 -65 -157 c-35 -86 -79 -179 -96 -207 -64 -100
-161 -188 -189 -170 -20 12 0 82 91 309 50 124 90 227 90 230 0 3 -46 5 -103
5 l-103 0 -82 -203 c-110 -275 -120 -324 -82 -402 27 -56 79 -80 150 -72 58 7
136 46 176 88 l28 29 20 -37 c35 -60 68 -78 144 -78 73 1 135 26 201 83 l35
29 20 -41 c52 -102 199 -98 321 8 l39 33 20 -40 c30 -58 75 -80 152 -74 142
10 235 97 408 380 56 90 88 112 150 102 22 -3 53 -12 68 -18 l28 -12 -161
-145 c-88 -80 -174 -157 -192 -171 l-31 -27 29 -41 c15 -23 32 -44 36 -47 4
-2 23 5 41 16 44 26 76 25 150 -6 188 -79 324 -13 473 228 l37 59 -23 25 c-34
37 -53 30 -99 -34 -78 -112 -133 -132 -241 -85 l-67 28 153 139 c84 75 165
150 180 166 l27 29 -31 44 -32 44 -45 -10 c-33 -8 -65 -7 -122 3 -114 20 -200
23 -233 10 -47 -20 -89 -76 -169 -223 -90 -166 -161 -262 -223 -301 -105 -65
-103 -10 15 284 l92 230 51 0 51 0 17 48 c9 26 17 50 17 55 0 4 -20 7 -45 7
-25 0 -45 2 -45 5 0 2 11 30 25 61 38 87 40 85 -76 82 l-100 -3 -31 -72 -30
-73 -51 0 -52 0 -22 -55 -21 -55 49 0 c27 0 49 -2 49 -5 0 -3 -27 -73 -60
-156 -76 -190 -166 -326 -242 -365 -73 -38 -64 18 42 285 50 125 90 232 90
239 0 9 -28 12 -99 12 l-99 0 -52 -127 c-72 -179 -103 -240 -154 -305 -55 -69
-105 -108 -143 -111 -27 -2 -28 -1 -27 43 1 31 29 112 91 265 l90 220 50 3
c55 3 49 -4 90 100 4 9 -9 12 -45 12 l-51 0 29 69 c15 38 26 72 22 75 -3 3
-49 6 -102 6 l-96 0 -30 -72z"/>
<path d="M3620 1941 c-8 -6 -35 -13 -61 -16 -45 -6 -48 -9 -93 -81 -26 -41
-82 -111 -124 -156 -297 -316 -744 -444 -1162 -333 -113 31 -291 114 -375 177
-52 39 -69 46 -123 50 -43 4 -83 17 -132 42 -90 45 -82 28 37 -84 583 -545
1505 -454 1965 195 43 60 118 194 118 210 0 8 -34 5 -50 -4z"/>
<path d="M1932 1127 c-5 -7 -42 -102 -82 -212 -40 -110 -75 -206 -78 -213 -4
-12 53 -42 81 -42 8 0 28 35 47 85 18 47 37 85 42 85 5 0 18 -5 28 -10 17 -9
22 -5 35 26 8 20 15 38 15 39 0 1 -13 8 -29 15 l-30 12 19 46 c19 48 30 54 77
38 19 -6 25 -2 38 30 8 20 15 40 15 44 0 4 -19 13 -42 20 -24 8 -62 22 -85 31
-31 13 -44 15 -51 6z"/>
<path d="M3045 1109 c-147 -48 -148 -48 -141 -82 9 -43 24 -59 46 -47 10 6 21
10 24 10 6 0 31 -67 86 -232 30 -91 47 -128 58 -128 26 0 82 23 82 35 0 5 -27
88 -60 184 -33 96 -60 175 -60 176 0 2 13 8 29 13 28 10 29 11 17 46 -7 20
-14 38 -17 40 -2 3 -31 -4 -64 -15z"/>
<path d="M2235 1018 c-4 -18 -43 -309 -58 -432 -2 -17 9 -21 87 -33 102 -14
108 -12 104 47 -3 32 -6 35 -38 40 -20 3 -35 11 -34 18 1 6 2 28 3 47 1 33 3
35 36 35 27 0 35 4 35 18 0 9 3 27 6 40 5 19 2 22 -20 22 -33 0 -40 17 -32 74
l7 43 44 -5 45 -5 0 37 c0 20 1 39 3 43 2 8 -39 18 -122 27 -57 7 -61 6 -66
-16z"/>
<path d="M2614 1011 c-40 -25 -58 -68 -51 -130 7 -65 16 -81 80 -129 44 -33
55 -47 60 -78 6 -37 3 -53 -9 -41 -3 3 -8 24 -11 47 l-6 41 -46 -3 -46 -4 2
-59 c2 -51 6 -63 32 -89 51 -51 136 -41 176 20 14 22 16 41 12 98 -5 69 -6 72
-48 108 -24 21 -52 41 -61 44 -10 3 -21 17 -24 32 -3 15 -8 35 -11 45 -2 9 0
17 5 17 5 0 12 -18 16 -41 l6 -40 48 3 47 3 -2 44 c-3 61 -21 99 -54 116 -38
20 -78 19 -115 -4z"/>
</g>
</svg>
